<svg xmlns="http://www.w3.org/2000/svg" width="170.213" height="50.966" viewBox="0 0 170.213 50.966">
  <g id="Group_95" data-name="Group 95" transform="translate(-62.787 -10.044)">
    <text id="Mealswap" transform="translate(119 40)" fill="#1a1a1a" font-size="23" font-family="FugazOne-Regular, Fugaz One"><tspan x="0" y="0">Mealswap</tspan></text>
    <g id="Group_96" data-name="Group 96">
      <g id="Group_94" data-name="Group 94" transform="matrix(0.875, 0.485, -0.485, 0.875, 79.94, 7.343)">
        <g id="Group_28" data-name="Group 28" transform="translate(0.944 3.411)">
          <path id="Path_31" data-name="Path 31" d="M919.772,1258.726c-1.381-5.392-.059-11.221,3.722-16.411a32.378,32.378,0,0,1,16.2-11.326l.174.535a31.814,31.814,0,0,0-15.921,11.123c-3.68,5.052-4.97,10.714-3.632,15.94Z" transform="translate(-919.239 -1230.988)" fill="#232323"/>
        </g>
        <g id="Group_29" data-name="Group 29" transform="translate(34.504 2.675)">
          <path id="Path_32" data-name="Path 32" d="M2801.311,1201.42l-1.823-2.988-5.11-8.378q1.689-.7,2.7,1.4c.793-.219,1.207.131,1.113,1.244a3.636,3.636,0,0,1,.814.15c.979.311,1.532,1.094,1.41,2.62.9.305,1.042.964.786,1.811A2.327,2.327,0,0,1,2801.311,1201.42Z" transform="translate(-2794.378 -1189.879)" fill="#96051d"/>
        </g>
        <g id="Group_30" data-name="Group 30" transform="translate(1.225 3.679)">
          <path id="Path_33" data-name="Path 33" d="M955.162,1245.944c-13.683,4.45-22.568,16.348-19.739,27.4l1.593,3.8,5.453,1.658,3.265-2.469Z" transform="translate(-934.898 -1245.944)" fill="#fc9500"/>
        </g>
        <g id="Group_31" data-name="Group 31" transform="translate(1.225 3.679)" opacity="0.3">
          <path id="Path_34" data-name="Path 34" d="M955.162,1245.944c-13.683,4.45-22.568,16.348-19.739,27.4l1.593,3.8,5.453,1.658,3.265-2.469Z" transform="translate(-934.898 -1245.944)" fill="#232323"/>
        </g>
        <g id="Group_32" data-name="Group 32" transform="translate(0.944 3.397)">
          <path id="Path_35" data-name="Path 35" d="M927.091,1263.634a.281.281,0,0,1-.082-.012l-5.453-1.658a.283.283,0,0,1-.178-.16l-1.593-3.8a.317.317,0,0,1-.013-.039c-1.381-5.392-.059-11.22,3.722-16.411a32.381,32.381,0,0,1,16.2-11.326.282.282,0,0,1,.356.351l-9.427,30.386a.284.284,0,0,1-.1.141l-3.265,2.468A.282.282,0,0,1,927.091,1263.634Zm-5.245-2.17,5.189,1.578,3.078-2.328,9.238-29.775a31.683,31.683,0,0,0-15.4,10.95c-3.675,5.046-4.967,10.7-3.637,15.92Z" transform="translate(-919.239 -1230.217)" fill="#232323"/>
        </g>
        <g id="Group_33" data-name="Group 33" transform="translate(38.982 5.64)" opacity="0.3">
          <path id="Path_36" data-name="Path 36" d="M3047.057,1364.078l-1.823-2.988a5.043,5.043,0,0,1,.648-.932s.7-1.12-.073-1.484-.611-.829-.611-.829a3.778,3.778,0,0,0-.6-2.292l.145-.051c.978.312,1.532,1.094,1.411,2.621.9.305,1.042.964.785,1.811A2.326,2.326,0,0,1,3047.057,1364.078Z" transform="translate(-3044.602 -1355.502)" fill="#232323"/>
        </g>
        <g id="Group_34" data-name="Group 34" transform="translate(1.222 5.968)">
          <path id="Path_37" data-name="Path 37" d="M960.515,1379.576c.746.822.462,2.3.889,3.285s1.7,1.787,1.817,2.876c.111,1.061-.962,2.122-1.143,3.214-.173,1.048.518,2.387.082,3.408-.417.975-1.858,1.414-2.508,2.315-.619.858-.567,2.367-1.392,3.115s-2.321.55-3.236,1.083c-.961.56-1.537,1.951-2.549,2.271-1.058.334-2.324-.484-3.384-.414-1.1.074-2.265,1.039-3.31.824-1.073-.22-1.74-1.563-2.686-2.088s-2.437-.382-3.182-1.2-.462-2.3-.889-3.285-1.7-1.786-1.817-2.876c-.111-1.061.962-2.122,1.143-3.214.173-1.048-.518-2.388-.082-3.408.417-.975,1.858-1.414,2.508-2.315.619-.858.567-2.366,1.392-3.115s2.322-.55,3.236-1.083c.961-.559,1.537-1.951,2.549-2.271,1.058-.334,2.323.484,3.384.414,1.1-.074,2.265-1.039,3.31-.825,1.073.22,1.74,1.563,2.686,2.088S959.769,1378.753,960.515,1379.576Z" transform="translate(-937.154 -1376.209)" fill="#75c91c"/>
          <path id="Path_38" data-name="Path 38" d="M943.7,1399.246a1.6,1.6,0,0,1-.321-.032,3.419,3.419,0,0,1-1.62-1.157,3.44,3.44,0,0,0-2.411-1.351,2.435,2.435,0,0,1-2.474-2.728,3.441,3.441,0,0,0-1.11-2.531,2.432,2.432,0,0,1-.416-3.558,4.88,4.88,0,0,0,.566-1.393,4.552,4.552,0,0,0-.1-1.457,3.547,3.547,0,0,1,.019-1.961,3.5,3.5,0,0,1,1.337-1.312,4.737,4.737,0,0,0,1.176-1.012,4.412,4.412,0,0,0,.552-1.374,2.6,2.6,0,0,1,2.669-2.421,4.415,4.415,0,0,0,1.421-.416,4.738,4.738,0,0,0,1.121-1.072,3.5,3.5,0,0,1,1.436-1.2,3.552,3.552,0,0,1,1.954.171,4.537,4.537,0,0,0,1.441.24,4.892,4.892,0,0,0,1.442-.427,2.432,2.432,0,0,1,3.5.76,3.441,3.441,0,0,0,2.411,1.351,3.365,3.365,0,0,1,1.86.8h0a3.367,3.367,0,0,1,.613,1.929,3.441,3.441,0,0,0,1.11,2.531,2.432,2.432,0,0,1,.416,3.557,4.894,4.894,0,0,0-.566,1.394,4.55,4.55,0,0,0,.1,1.457,3.545,3.545,0,0,1-.019,1.961,3.493,3.493,0,0,1-1.337,1.312,4.738,4.738,0,0,0-1.176,1.012,4.407,4.407,0,0,0-.552,1.374,2.6,2.6,0,0,1-2.669,2.421,4.406,4.406,0,0,0-1.421.416,4.733,4.733,0,0,0-1.121,1.071,3.5,3.5,0,0,1-1.436,1.2,3.545,3.545,0,0,1-1.953-.172,4.573,4.573,0,0,0-1.441-.24,4.888,4.888,0,0,0-1.442.427A4.362,4.362,0,0,1,943.7,1399.246Zm2.417-24.971a1.788,1.788,0,0,0-.544.078,3.38,3.38,0,0,0-1.4,1.176,4.794,4.794,0,0,1-1.144,1.09,4.543,4.543,0,0,1-1.449.426,2.518,2.518,0,0,0-2.6,2.359,4.538,4.538,0,0,1-.565,1.4,4.8,4.8,0,0,1-1.2,1.033,3.383,3.383,0,0,0-1.307,1.275,3.486,3.486,0,0,0-.013,1.912,4.688,4.688,0,0,1,.1,1.486,4.947,4.947,0,0,1-.575,1.42,3.306,3.306,0,0,0-.568,1.782,3.359,3.359,0,0,0,.973,1.678,3.522,3.522,0,0,1,1.13,2.578,2.354,2.354,0,0,0,2.405,2.652,3.522,3.522,0,0,1,2.456,1.376,3.357,3.357,0,0,0,1.575,1.131,3.307,3.307,0,0,0,1.829-.392,4.948,4.948,0,0,1,1.469-.434,4.7,4.7,0,0,1,1.469.243,3.488,3.488,0,0,0,1.9.173,3.383,3.383,0,0,0,1.4-1.176,4.794,4.794,0,0,1,1.144-1.091,4.531,4.531,0,0,1,1.449-.426,2.518,2.518,0,0,0,2.6-2.359,4.534,4.534,0,0,1,.565-1.4,4.8,4.8,0,0,1,1.2-1.033,3.384,3.384,0,0,0,1.307-1.274,3.487,3.487,0,0,0,.014-1.912,4.686,4.686,0,0,1-.1-1.486,4.95,4.95,0,0,1,.575-1.42,3.306,3.306,0,0,0,.568-1.782,3.361,3.361,0,0,0-.973-1.678,3.521,3.521,0,0,1-1.13-2.578,3.306,3.306,0,0,0-.591-1.881h0a3.3,3.3,0,0,0-1.814-.772,3.522,3.522,0,0,1-2.456-1.376,3.362,3.362,0,0,0-1.575-1.132,3.3,3.3,0,0,0-1.829.392,4.938,4.938,0,0,1-1.469.433,4.679,4.679,0,0,1-1.469-.243A5.355,5.355,0,0,0,946.122,1374.275Z" transform="translate(-934.767 -1373.826)" fill="#650000"/>
        </g>
        <g id="Group_35" data-name="Group 35" transform="translate(7.62 29.491)" opacity="0.55">
          <path id="Path_39" data-name="Path 39" d="M1309.372,2697.76c-.923-.257-1.549-1.337-2.345-1.911a2.6,2.6,0,0,1,.416.182A23.137,23.137,0,0,1,1309.372,2697.76Z" transform="translate(-1306.762 -2695.712)" fill="#fff"/>
          <path id="Path_40" data-name="Path 40" d="M1295.077,2690.344l-.229-.063a3.676,3.676,0,0,1-1.514-1.131,6.529,6.529,0,0,0-.845-.786l-.239-.173.279.1a2.686,2.686,0,0,1,.423.185,5.05,5.05,0,0,1,1.1.951,6.736,6.736,0,0,0,.835.781Zm-2.3-1.866c.215.186.421.4.622.611a4.44,4.44,0,0,0,1.224,1.014c-.22-.189-.43-.408-.634-.621a5,5,0,0,0-1.077-.936C1292.866,2688.522,1292.822,2688.5,1292.775,2688.478Z" transform="translate(-1292.25 -2688.19)" fill="#232323"/>
        </g>
        <g id="Group_36" data-name="Group 36" transform="translate(1.266 6.011)" opacity="0.55">
          <path id="Path_41" data-name="Path 41" d="M954.639,1376.282a1.939,1.939,0,0,1,.76.36c-.035-.01-.07-.018-.106-.025-1.046-.215-2.207.75-3.311.824-1.06.071-2.326-.748-3.384-.414-1.011.32-1.588,1.712-2.548,2.271-.915.532-2.411.333-3.237,1.082s-.773,2.257-1.393,3.115c-.65.9-2.091,1.34-2.508,2.316-.436,1.02.256,2.359.082,3.407-.18,1.092-1.254,2.153-1.143,3.215.114,1.089,1.386,1.884,1.817,2.876s.143,2.463.889,3.284a1.544,1.544,0,0,0,.225.2,2.075,2.075,0,0,1-.88-.538c-.746-.823-.463-2.3-.889-3.284s-1.7-1.787-1.817-2.877c-.111-1.061.963-2.122,1.143-3.214.174-1.048-.518-2.387-.082-3.408.417-.976,1.858-1.415,2.508-2.316.619-.859.567-2.367,1.393-3.116s2.322-.55,3.237-1.083c.96-.559,1.537-1.95,2.548-2.27,1.058-.334,2.324.484,3.384.413C952.432,1377.033,953.592,1376.068,954.639,1376.282Z" transform="translate(-937.19 -1376.251)" fill="#fff"/>
        </g>
        <g id="Group_37" data-name="Group 37" transform="translate(22.031 8.422)" opacity="0.55">
          <path id="Path_42" data-name="Path 42" d="M2115.044,1519.609a15.75,15.75,0,0,1-2.3-.666,2.53,2.53,0,0,1-.238-.153A9.313,9.313,0,0,1,2115.044,1519.609Z" transform="translate(-2112.234 -1518.651)" fill="#fff"/>
          <path id="Path_43" data-name="Path 43" d="M2100.524,1512.075l-.264-.092a8.045,8.045,0,0,0-.951-.244,5.027,5.027,0,0,1-1.358-.425,2.487,2.487,0,0,1-.243-.156l-.244-.175.284.1a8.027,8.027,0,0,0,.926.237,4.139,4.139,0,0,1,1.627.588Zm-2.489-.815a5.2,5.2,0,0,0,1.293.393c.212.046.43.093.641.149a5.39,5.39,0,0,0-1.313-.4C2098.449,1511.359,2098.238,1511.314,2098.035,1511.26Z" transform="translate(-2097.465 -1510.983)" fill="#232323"/>
        </g>
        <g id="Group_38" data-name="Group 38" transform="translate(3.305 12.67)" opacity="0.3">
          <path id="Path_44" data-name="Path 44" d="M1055.245,1748.321c-.5,0-.871.471-1.075.93a3.344,3.344,0,0,1-.73,1.3c-.35.293-.851.375-1.167.7a1.433,1.433,0,0,0-.347.933,7.874,7.874,0,0,0,.068,1.014,6.192,6.192,0,0,1-.861,3.675,3.952,3.952,0,0,0,3.931-.932,6.586,6.586,0,0,0,1.353-2.413,8.2,8.2,0,0,0,.542-2.189,3.555,3.555,0,0,0-.477-2.172A1.674,1.674,0,0,0,1055.245,1748.321Z" transform="translate(-1051.133 -1748.321)" fill="#232323"/>
        </g>
        <g id="Group_39" data-name="Group 39" transform="translate(5.095 28.676)" opacity="0.55">
          <path id="Path_45" data-name="Path 45" d="M1167.348,2650.78a2.364,2.364,0,0,1,.238.153,9.28,9.28,0,0,1-2.541-.819A15.684,15.684,0,0,1,1167.348,2650.78Z" transform="translate(-1164.796 -2649.981)" fill="#fff"/>
          <path id="Path_46" data-name="Path 46" d="M1154.212,2643.773l-.283-.1a7.954,7.954,0,0,0-.923-.236,4.149,4.149,0,0,1-1.63-.589l-.223-.168.263.092a8.065,8.065,0,0,0,.951.244,5.046,5.046,0,0,1,1.358.425h0a2.551,2.551,0,0,1,.242.156Zm-2.5-.819a5.38,5.38,0,0,0,1.316.4c.206.044.416.089.619.144a5.182,5.182,0,0,0-1.293-.393C1152.137,2643.058,1151.919,2643.011,1151.708,2642.954Z" transform="translate(-1151.154 -2642.682)" fill="#232323"/>
        </g>
        <g id="Group_40" data-name="Group 40" transform="translate(19.741 6.547)" opacity="0.55">
          <path id="Path_47" data-name="Path 47" d="M1984.027,1414.018a2.593,2.593,0,0,1-.416-.182,22.926,22.926,0,0,1-1.925-1.728C1982.609,1412.367,1983.232,1413.445,1984.027,1414.018Z" transform="translate(-1981.468 -1412.003)" fill="#fff"/>
          <path id="Path_48" data-name="Path 48" d="M1972.349,1408.34l-.278-.1a2.612,2.612,0,0,1-.423-.185,5.053,5.053,0,0,1-1.1-.952,6.78,6.78,0,0,0-.832-.779l-.192-.141.229.064a3.672,3.672,0,0,1,1.511,1.13,6.542,6.542,0,0,0,.844.786Zm-2.367-1.911c.219.189.428.406.631.619a4.967,4.967,0,0,0,1.077.936c.043.024.088.047.135.069-.215-.186-.421-.4-.621-.61A4.441,4.441,0,0,0,1969.982,1406.429Z" transform="translate(-1969.526 -1406.188)" fill="#232323"/>
        </g>
        <g id="Group_41" data-name="Group 41" transform="translate(0.984 5.729)">
          <path id="Path_49" data-name="Path 49" d="M930.647,1386.408a1.831,1.831,0,0,1-.371-.037,3.586,3.586,0,0,1-1.745-1.225,3.225,3.225,0,0,0-2.289-1.283,2.654,2.654,0,0,1-2.66-2.933,3.223,3.223,0,0,0-1.054-2.4,2.651,2.651,0,0,1-.446-3.824,4.727,4.727,0,0,0,.541-1.321,4.4,4.4,0,0,0-.1-1.378,3.715,3.715,0,0,1,.035-2.094,3.661,3.661,0,0,1,1.421-1.414,4.572,4.572,0,0,0,1.118-.955,4.259,4.259,0,0,0,.516-1.3,2.818,2.818,0,0,1,2.856-2.59,4.254,4.254,0,0,0,1.343-.387,4.567,4.567,0,0,0,1.06-1.02,3.661,3.661,0,0,1,1.546-1.276,3.716,3.716,0,0,1,2.088.169,4.389,4.389,0,0,0,1.362.232,4.723,4.723,0,0,0,1.368-.41,2.651,2.651,0,0,1,3.762.816,3.221,3.221,0,0,0,2.289,1.283,3.536,3.536,0,0,1,1.987.871h0a3.536,3.536,0,0,1,.673,2.062,3.221,3.221,0,0,0,1.054,2.4,2.651,2.651,0,0,1,.446,3.824,4.72,4.72,0,0,0-.541,1.321,4.388,4.388,0,0,0,.1,1.378,3.717,3.717,0,0,1-.035,2.094,3.658,3.658,0,0,1-1.421,1.414,4.572,4.572,0,0,0-1.118.955,4.256,4.256,0,0,0-.516,1.3,2.819,2.819,0,0,1-2.856,2.59,4.253,4.253,0,0,0-1.343.387,4.576,4.576,0,0,0-1.06,1.02,3.661,3.661,0,0,1-1.546,1.276,3.713,3.713,0,0,1-2.088-.169,4.389,4.389,0,0,0-1.362-.232,4.728,4.728,0,0,0-1.368.41A4.526,4.526,0,0,1,930.647,1386.408Zm2.418-24.972a1.57,1.57,0,0,0-.476.068,3.234,3.234,0,0,0-1.286,1.1,4.965,4.965,0,0,1-1.206,1.143,4.7,4.7,0,0,1-1.526.454,2.3,2.3,0,0,0-2.415,2.19,4.708,4.708,0,0,1-.6,1.475,4.974,4.974,0,0,1-1.255,1.089,3.231,3.231,0,0,0-1.223,1.172,3.276,3.276,0,0,0,0,1.778,4.85,4.85,0,0,1,.1,1.565,5.125,5.125,0,0,1-.6,1.492,2.135,2.135,0,0,0,.375,3.194,3.741,3.741,0,0,1,1.186,2.706,2.137,2.137,0,0,0,2.219,2.447,3.742,3.742,0,0,1,2.578,1.444,2.135,2.135,0,0,0,3.142.684,5.114,5.114,0,0,1,1.543-.451,4.855,4.855,0,0,1,1.548.251,3.279,3.279,0,0,0,1.77.175,3.232,3.232,0,0,0,1.286-1.1,4.965,4.965,0,0,1,1.206-1.143,4.7,4.7,0,0,1,1.526-.454,2.3,2.3,0,0,0,2.415-2.19,4.708,4.708,0,0,1,.6-1.475,4.967,4.967,0,0,1,1.255-1.089,3.233,3.233,0,0,0,1.223-1.172,3.276,3.276,0,0,0,0-1.779,4.849,4.849,0,0,1-.1-1.565,5.119,5.119,0,0,1,.6-1.492,2.135,2.135,0,0,0-.375-3.194,3.74,3.74,0,0,1-1.186-2.706,3.1,3.1,0,0,0-.531-1.748h0a3.1,3.1,0,0,0-1.688-.7,3.738,3.738,0,0,1-2.578-1.444,2.136,2.136,0,0,0-3.143-.684,5.11,5.11,0,0,1-1.543.451,4.842,4.842,0,0,1-1.548-.251A5.167,5.167,0,0,0,933.065,1361.436Z" transform="translate(-921.468 -1360.512)" fill="#232323"/>
        </g>
        <g id="Group_42" data-name="Group 42" transform="translate(0.281 21.179)">
          <path id="Path_50" data-name="Path 50" d="M891.656,2228.505a4.706,4.706,0,0,1-.334,1.747h0a4.729,4.729,0,1,1,.334-1.749Z" transform="translate(-882.202 -2223.778)" fill="#f71d00"/>
        </g>
        <g id="Group_43" data-name="Group 43" transform="translate(1.707 23)" opacity="0.3">
          <path id="Path_51" data-name="Path 51" d="M969.621,2329.787q-.02.2-.055.387v0a4.728,4.728,0,0,1-7.694,1.633,1.469,1.469,0,0,0,1.832-1.845,7.251,7.251,0,0,0-.416-.849,2.523,2.523,0,0,1,2.245-3.594,4.937,4.937,0,0,1,2.322.786,3.535,3.535,0,0,1,1.559,1.706A3.752,3.752,0,0,1,969.621,2329.787Z" transform="translate(-961.872 -2325.521)" fill="#232323"/>
        </g>
        <g id="Group_44" data-name="Group 44" transform="translate(0.282 21.18)" opacity="0.55">
          <path id="Path_52" data-name="Path 52" d="M890.752,2225.721a4.727,4.727,0,0,0-7.106,6.187,4.727,4.727,0,1,1,7.106-6.187Z" transform="translate(-882.22 -2223.799)" fill="#fff"/>
        </g>
        <g id="Group_45" data-name="Group 45" transform="translate(0 20.898)">
          <path id="Path_53" data-name="Path 53" d="M871.487,2218.065a5.008,5.008,0,1,1,5.008-5.008A5.014,5.014,0,0,1,871.487,2218.065Zm0-9.453a4.445,4.445,0,1,0,4.445,4.445A4.45,4.45,0,0,0,871.487,2208.612Z" transform="translate(-866.479 -2208.049)" fill="#232323"/>
        </g>
        <g id="Group_46" data-name="Group 46" transform="translate(25.694 0.238)">
          <circle id="Ellipse_15" data-name="Ellipse 15" cx="4.727" cy="4.727" r="4.727" transform="translate(0.044 0.044)" fill="#e7563c"/>
          <path id="Path_54" data-name="Path 54" d="M2306.923,1063.236q-.232,0-.468-.023a4.765,4.765,0,1,1,.468.023Zm-.012-9.454a4.7,4.7,0,1,0,.464.023Q2307.143,1053.781,2306.911,1053.781Z" transform="translate(-2302.149 -1053.694)" fill="#232323"/>
        </g>
        <g id="Group_47" data-name="Group 47" transform="translate(25.696 0.238)" opacity="0.55">
          <path id="Path_55" data-name="Path 55" d="M2314.119,1061.331q-.018.172-.046.34a4.727,4.727,0,0,0-9.384-.917c0-.114.01-.228.021-.343a4.727,4.727,0,0,1,9.408.92Z" transform="translate(-2304.645 -1056.101)" fill="#fff"/>
          <path id="Path_56" data-name="Path 56" d="M2311.723,1059.279l-.087-.008a4.683,4.683,0,0,0-9.3-.909l-.087-.009c0-.118.01-.235.021-.345a4.77,4.77,0,0,1,9.5.928h0C2311.759,1059.047,2311.743,1059.163,2311.723,1059.279Zm-4.767-4.9q.23,0,.463.023a4.789,4.789,0,0,1,4.282,4.259,4.683,4.683,0,0,0-9.307-.91A4.793,4.793,0,0,1,2306.956,1054.384Z" transform="translate(-2302.253 -1053.702)" fill="#232323"/>
        </g>
        <g id="Group_48" data-name="Group 48" transform="translate(25.671 0.964)">
          <path id="Path_57" data-name="Path 57" d="M2310.3,1099.426a4.726,4.726,0,1,1-9.408-.92c.011-.115.027-.228.045-.34a4.727,4.727,0,0,1,9.384.918Q2310.319,1099.254,2310.3,1099.426Z" transform="translate(-2300.872 -1094.239)" fill="#f71d00"/>
        </g>
        <g id="Group_49" data-name="Group 49" transform="translate(25.456)">
          <path id="Path_58" data-name="Path 58" d="M2293.869,1050.4c-.163,0-.326-.008-.491-.024a5.008,5.008,0,1,1,5.472-4.5h0A5.015,5.015,0,0,1,2293.869,1050.4Zm-.012-9.454a4.445,4.445,0,1,0,4.432,4.878l.28.028-.28-.028a4.446,4.446,0,0,0-3.991-4.857C2294.151,1040.957,2294,1040.95,2293.857,1040.95Z" transform="translate(-2288.857 -1040.387)" fill="#232323"/>
        </g>
        <g id="Group_50" data-name="Group 50" transform="translate(3.343 5.53)">
          <path id="Path_59" data-name="Path 59" d="M1064.436,1367.924c.331,9.964-4.382,13.191-8.357,11.523a6.669,6.669,0,0,1-1.878-1.215c-1.311-1.9-1.371-4.113.9-5.276-.677-.211-1.007-1.27,0-1.978-1.368-.29-1.658-2.647.756-2.705-.9-.557-.987-1.175-.146-1.861-.843-1.744-.678-3.093,1.091-3.811-1.353-1-.655-2.312.48-2.312q-.04-.24-.062-.469c-.007-.063-.012-.124-.016-.185a2.666,2.666,0,0,1,2.412-3.142,2.292,2.292,0,0,1,1.505-1.92c.24-2.318.9-4.157,3.708-3.578.942-1.488,2.148-2.134,3.846-1.213,0,0-3.884,5.491-4.236,15.343Q1064.39,1366.47,1064.436,1367.924Z" transform="translate(-1053.289 -1349.356)" fill="#96051d"/>
        </g>
        <g id="Group_51" data-name="Group 51" transform="translate(6.114 15.773)" opacity="0.3">
          <path id="Path_60" data-name="Path 60" d="M1208.117,1941.557l-.019-.185c1.837,0,2.465-3.932.685-3.56.609-.5.942-.965.711-1.364.756-.092,1.055-.427.676-1.124.85-.22.923-.652.545-1.208-.381-.834-1-.637-1.174-.56.963-.474,1.248-1.161.389-2.213.45-.525.393-.962-.2-1.309,1.358-.374,1.794-1.175,1-2.547.456-.424.543-.591.065-1.227a2.363,2.363,0,0,0,.4-2.448s-1.476-1.342-1.938-1.881c-.159-.186-.2-.277-.016-.185a38.147,38.147,0,0,1,3.524,2.617c1.494,1.176,2.715,2.113,3.711,2.874-.032.9-.035,1.83,0,2.8C1216.805,1940,1212.092,1943.225,1208.117,1941.557Z" transform="translate(-1208.098 -1921.709)" fill="#232323"/>
        </g>
        <g id="Group_52" data-name="Group 52" transform="translate(3.343 7.063)" opacity="0.55">
          <path id="Path_61" data-name="Path 61" d="M1064.226,1435.024c-1.727.179-2.211,1.761-2.408,3.668a2.291,2.291,0,0,0-1.505,1.92c-2.076.409-2.61,1.747-2.371,3.552a.237.237,0,0,1-.2.264,1.14,1.14,0,0,0-.513,2.064.235.235,0,0,1-.058.377c-1.386.71-1.539,1.9-.875,3.42a.37.37,0,0,1-.08.413c-.469.462-.51.891-.157,1.292a.3.3,0,0,1-.15.481,1.333,1.333,0,0,0-.444,2.5.229.229,0,0,1,.052.361,1.061,1.061,0,0,0-.027,1.564.228.228,0,0,1-.031.365c-1.921,1.2-1.8,3.284-.559,5.084a5.966,5.966,0,0,0,3.533,1.62,5.728,5.728,0,0,1-4.231-1.62c-1.311-1.9-1.371-4.113.9-5.276-.677-.211-1.007-1.27,0-1.978-1.368-.291-1.658-2.647.756-2.705-.9-.557-.987-1.174-.146-1.861-.843-1.744-.678-3.093,1.091-3.811-1.353-1-.655-2.312.48-2.312-.32-1.928.166-3.369,2.334-3.8a2.291,2.291,0,0,1,1.505-1.92C1061.342,1436.549,1061.925,1434.817,1064.226,1435.024Z" transform="translate(-1053.289 -1435.007)" fill="#fff"/>
        </g>
        <g id="Group_53" data-name="Group 53" transform="translate(14.866 5.486)" opacity="0.55">
          <path id="Path_62" data-name="Path 62" d="M1704.094,1349.368a3.124,3.124,0,0,0-2.029,1.613,5.108,5.108,0,0,0-.638-.094A2.688,2.688,0,0,1,1704.094,1349.368Z" transform="translate(-1701.35 -1349.297)" fill="#fff"/>
          <path id="Path_63" data-name="Path 63" d="M1697.867,1348.625l-.03-.006a5.086,5.086,0,0,0-.632-.093l-.073-.006.04-.062a2.708,2.708,0,0,1,2.71-1.539l.276.042-.275.044a3.049,3.049,0,0,0-2,1.593Zm-.582-.179a5.249,5.249,0,0,1,.54.082,3.336,3.336,0,0,1,1.776-1.546A2.691,2.691,0,0,0,1697.285,1348.446Z" transform="translate(-1697.131 -1346.893)" fill="#232323"/>
        </g>
        <g id="Group_54" data-name="Group 54" transform="translate(14.276 7.018)" opacity="0.55">
          <path id="Path_64" data-name="Path 64" d="M1665.083,1434.988l-.06.093a5.174,5.174,0,0,0-.6-.09A3.5,3.5,0,0,1,1665.083,1434.988Z" transform="translate(-1664.415 -1434.93)" fill="#fff"/>
          <path id="Path_65" data-name="Path 65" d="M1664.788,1432.738l-.031,0a5.05,5.05,0,0,0-.6-.089v-.087a3.55,3.55,0,0,1,.671,0l.073.006-.04.061-.059.091Zm-.093-.105.05.01,0-.007Z" transform="translate(-1664.159 -1432.541)" fill="#232323"/>
        </g>
        <g id="Group_55" data-name="Group 55" transform="translate(3.062 5.25)">
          <path id="Path_66" data-name="Path 66" d="M1038.753,1363.167a.281.281,0,0,1-.232-.122,4.4,4.4,0,0,1-.867-3.518,3.247,3.247,0,0,1,1.452-1.928,1.258,1.258,0,0,1-.358-.7,1.415,1.415,0,0,1,.377-1.175,1.614,1.614,0,0,1,.592-2.994,1.129,1.129,0,0,1-.317-.684,1.353,1.353,0,0,1,.518-1.053,3.284,3.284,0,0,1-.282-2.545,2.459,2.459,0,0,1,1.208-1.266,1.527,1.527,0,0,1-.449-1.552,1.441,1.441,0,0,1,1.117-.938c-.266-2.105.528-3.345,2.418-3.782a2.538,2.538,0,0,1,1.482-1.882,4.573,4.573,0,0,1,1.39-3.289,3.079,3.079,0,0,1,2.448-.4c1.108-1.642,2.49-2.028,4.112-1.149a.281.281,0,1,1-.268.495c-1.406-.762-2.509-.408-3.474,1.116a.281.281,0,0,1-.295.125,2.679,2.679,0,0,0-2.191.267c-.828.606-1.066,1.956-1.181,3.064a.282.282,0,0,1-.185.236,2,2,0,0,0-1.323,1.706.281.281,0,0,1-.222.225c-1.8.354-2.451,1.426-2.111,3.473a.281.281,0,0,1-.278.328.92.92,0,0,0-.9.582c-.132.4.083.845.592,1.223a.281.281,0,0,1-.062.487,2.115,2.115,0,0,0-1.3,1.135,2.972,2.972,0,0,0,.354,2.292.282.282,0,0,1-.075.341c-.228.186-.5.463-.479.725s.333.517.594.679a.281.281,0,0,1-.141.521c-.9.022-1.466.4-1.522,1.009a1.071,1.071,0,0,0,.818,1.14.282.282,0,0,1,.1.505,1.006,1.006,0,0,0-.509.949.652.652,0,0,0,.431.53.281.281,0,0,1,.045.519,2.82,2.82,0,0,0-1.579,1.805,3.86,3.86,0,0,0,.785,3.061.281.281,0,0,1-.232.441Z" transform="translate(-1037.559 -1333.729)" fill="#232323"/>
        </g>
        <g id="Group_56" data-name="Group 56" transform="translate(7.335 6.262)">
          <circle id="Ellipse_16" data-name="Ellipse 16" cx="4.727" cy="4.727" r="4.727" fill="#f71d00"/>
        </g>
        <g id="Group_57" data-name="Group 57" transform="translate(7.335 6.262)" opacity="0.55">
          <path id="Path_67" data-name="Path 67" d="M1285.023,1392.449a4.727,4.727,0,0,0-7.6,5.592,4.727,4.727,0,1,1,7.6-5.592Z" transform="translate(-1276.31 -1390.266)" fill="#fff"/>
        </g>
        <g id="Group_58" data-name="Group 58" transform="translate(7.053 5.98)">
          <path id="Path_68" data-name="Path 68" d="M1265.591,1384.539a5.008,5.008,0,1,1,5.008-5.008A5.014,5.014,0,0,1,1265.591,1384.539Zm0-9.453a4.445,4.445,0,1,0,4.445,4.445A4.45,4.45,0,0,0,1265.591,1375.086Z" transform="translate(-1260.583 -1374.523)" fill="#232323"/>
        </g>
        <g id="Group_59" data-name="Group 59" transform="translate(8.43 0.582)">
          <path id="Path_69" data-name="Path 69" d="M1363.249,1078.636c.746.822.462,2.3.889,3.285s1.7,1.787,1.817,2.877c.112,1.061-.962,2.122-1.143,3.214-.173,1.048.518,2.388.082,3.408-.417.975-1.858,1.414-2.508,2.315-.619.859-.567,2.366-1.392,3.116s-2.322.55-3.236,1.082c-.961.56-1.537,1.951-2.549,2.271-1.058.334-2.324-.484-3.384-.414-1.1.073-2.265,1.039-3.31.825-1.073-.22-1.74-1.563-2.686-2.088s-2.437-.382-3.183-1.2-.462-2.3-.889-3.285-1.7-1.787-1.817-2.876c-.111-1.062.962-2.123,1.143-3.214.173-1.048-.518-2.387-.082-3.408.417-.976,1.858-1.414,2.508-2.315.619-.858.567-2.366,1.392-3.115s2.322-.55,3.236-1.083c.961-.559,1.537-1.951,2.549-2.271,1.058-.334,2.323.484,3.384.414,1.1-.073,2.265-1.039,3.31-.825,1.073.22,1.74,1.563,2.686,2.088S1362.5,1077.813,1363.249,1078.636Z" transform="translate(-1339.888 -1075.269)" fill="#75c91c"/>
          <path id="Path_70" data-name="Path 70" d="M1346.44,1098.308a1.587,1.587,0,0,1-.322-.032,3.416,3.416,0,0,1-1.62-1.156,3.441,3.441,0,0,0-2.411-1.351,2.435,2.435,0,0,1-2.474-2.728,3.441,3.441,0,0,0-1.11-2.531,2.432,2.432,0,0,1-.416-3.558,4.892,4.892,0,0,0,.566-1.393,4.544,4.544,0,0,0-.1-1.457,3.55,3.55,0,0,1,.019-1.961,3.5,3.5,0,0,1,1.337-1.312,4.732,4.732,0,0,0,1.176-1.012,4.417,4.417,0,0,0,.552-1.374,2.6,2.6,0,0,1,2.669-2.421,4.416,4.416,0,0,0,1.421-.415,4.737,4.737,0,0,0,1.122-1.072,3.5,3.5,0,0,1,1.436-1.2,3.549,3.549,0,0,1,1.954.172,4.552,4.552,0,0,0,1.441.24,4.885,4.885,0,0,0,1.442-.427,2.432,2.432,0,0,1,3.5.76,3.44,3.44,0,0,0,2.411,1.351,2.435,2.435,0,0,1,2.474,2.728,3.441,3.441,0,0,0,1.11,2.531,2.432,2.432,0,0,1,.416,3.558,4.886,4.886,0,0,0-.566,1.394,4.556,4.556,0,0,0,.1,1.457,3.545,3.545,0,0,1-.019,1.961,3.493,3.493,0,0,1-1.338,1.312,4.737,4.737,0,0,0-1.175,1.012,4.408,4.408,0,0,0-.552,1.374,2.6,2.6,0,0,1-2.669,2.421,4.407,4.407,0,0,0-1.421.415,4.736,4.736,0,0,0-1.121,1.072,3.5,3.5,0,0,1-1.436,1.2,3.55,3.55,0,0,1-1.954-.171,4.557,4.557,0,0,0-1.44-.24,4.888,4.888,0,0,0-1.442.427A4.356,4.356,0,0,1,1346.44,1098.308Zm2.417-24.971a1.792,1.792,0,0,0-.544.078,3.385,3.385,0,0,0-1.4,1.176,4.8,4.8,0,0,1-1.144,1.091,4.54,4.54,0,0,1-1.449.426,2.518,2.518,0,0,0-2.6,2.359,4.545,4.545,0,0,1-.565,1.4,4.791,4.791,0,0,1-1.2,1.032,3.384,3.384,0,0,0-1.307,1.274,3.485,3.485,0,0,0-.014,1.912,4.678,4.678,0,0,1,.1,1.486,4.936,4.936,0,0,1-.574,1.42,3.309,3.309,0,0,0-.568,1.783,3.361,3.361,0,0,0,.973,1.678,3.522,3.522,0,0,1,1.13,2.578,2.354,2.354,0,0,0,2.405,2.652,3.519,3.519,0,0,1,2.455,1.376,3.361,3.361,0,0,0,1.575,1.132,3.3,3.3,0,0,0,1.829-.392,4.947,4.947,0,0,1,1.469-.433,4.673,4.673,0,0,1,1.47.243,3.488,3.488,0,0,0,1.9.173,3.385,3.385,0,0,0,1.4-1.176,4.8,4.8,0,0,1,1.144-1.091,4.54,4.54,0,0,1,1.449-.426,2.518,2.518,0,0,0,2.6-2.359,4.542,4.542,0,0,1,.565-1.4,4.794,4.794,0,0,1,1.2-1.032,3.383,3.383,0,0,0,1.307-1.275,3.488,3.488,0,0,0,.014-1.912,4.681,4.681,0,0,1-.1-1.486,4.945,4.945,0,0,1,.575-1.42,3.3,3.3,0,0,0,.568-1.782,3.361,3.361,0,0,0-.973-1.678,3.521,3.521,0,0,1-1.131-2.578,2.354,2.354,0,0,0-2.405-2.652,3.52,3.52,0,0,1-2.456-1.376,3.359,3.359,0,0,0-1.575-1.132,3.3,3.3,0,0,0-1.829.392,4.951,4.951,0,0,1-1.469.433,4.68,4.68,0,0,1-1.469-.243A5.361,5.361,0,0,0,1348.857,1073.337Z" transform="translate(-1337.502 -1072.888)" fill="#650000"/>
        </g>
        <g id="Group_60" data-name="Group 60" transform="translate(11.015 3.7)" opacity="0.3">
          <path id="Path_71" data-name="Path 71" d="M1492.536,1247.6a1.757,1.757,0,0,0-2.356-.077c-.216.2-.377.444-.573.661a2.778,2.778,0,0,1-2.286.88,1.42,1.42,0,0,0-1.349.839c-.172.432-.214.909-.391,1.339a1.3,1.3,0,0,1-.845.808,1.35,1.35,0,0,0-.595.266,2.433,2.433,0,0,0-.664.83,6.3,6.3,0,0,0-.279,1.521,1.782,1.782,0,0,1-.628,1.206,1.421,1.421,0,0,0-.59.844,2.8,2.8,0,0,0,.337,1.615,1.72,1.72,0,0,1,.087,1.229" transform="translate(-1481.945 -1247.108)" fill="#232323"/>
        </g>
        <g id="Group_61" data-name="Group 61" transform="translate(8.561 0.669)" opacity="0.55">
          <path id="Path_72" data-name="Path 72" d="M1368.116,1081.073a1.963,1.963,0,0,1,.415.8,1.5,1.5,0,0,0-.124-.156c-.746-.822-2.246-.683-3.182-1.2s-1.613-1.868-2.686-2.088c-1.046-.214-2.206.751-3.311.825-1.06.071-2.325-.748-3.383-.414-1.012.32-1.588,1.711-2.549,2.271-.914.533-2.41.334-3.237,1.083s-.773,2.257-1.392,3.115c-.651.9-2.092,1.34-2.509,2.316-.435,1.02.256,2.359.083,3.408-.181,1.092-1.254,2.153-1.143,3.214a1.612,1.612,0,0,0,.043.232,2.031,2.031,0,0,1-.333-.872c-.112-1.061.962-2.122,1.143-3.214.174-1.049-.518-2.388-.082-3.408.416-.976,1.858-1.414,2.508-2.315.62-.859.567-2.366,1.393-3.115s2.321-.55,3.237-1.083c.96-.559,1.537-1.951,2.548-2.271,1.058-.334,2.323.484,3.384.414,1.1-.073,2.264-1.039,3.31-.825,1.074.22,1.741,1.563,2.686,2.088S1367.371,1080.251,1368.116,1081.073Z" transform="translate(-1344.799 -1077.75)" fill="#fff"/>
        </g>
        <g id="Group_62" data-name="Group 62" transform="translate(8.192 0.343)">
          <path id="Path_73" data-name="Path 73" d="M1333.382,1085.474a1.842,1.842,0,0,1-.372-.037,3.585,3.585,0,0,1-1.745-1.225,3.223,3.223,0,0,0-2.289-1.283,2.654,2.654,0,0,1-2.66-2.933,3.224,3.224,0,0,0-1.054-2.4,2.651,2.651,0,0,1-.446-3.824,4.721,4.721,0,0,0,.541-1.322,4.391,4.391,0,0,0-.1-1.378,3.718,3.718,0,0,1,.035-2.094,3.663,3.663,0,0,1,1.421-1.414,4.559,4.559,0,0,0,1.118-.955,4.254,4.254,0,0,0,.516-1.3,2.818,2.818,0,0,1,2.856-2.59,4.247,4.247,0,0,0,1.343-.387,4.568,4.568,0,0,0,1.06-1.02,3.659,3.659,0,0,1,1.546-1.276,3.719,3.719,0,0,1,2.088.169,4.4,4.4,0,0,0,1.362.232,4.727,4.727,0,0,0,1.368-.41,2.651,2.651,0,0,1,3.762.816,3.222,3.222,0,0,0,2.289,1.283,2.654,2.654,0,0,1,2.66,2.933,3.222,3.222,0,0,0,1.054,2.4,2.651,2.651,0,0,1,.446,3.823,4.73,4.73,0,0,0-.542,1.322,4.392,4.392,0,0,0,.1,1.378,3.716,3.716,0,0,1-.035,2.094,3.66,3.66,0,0,1-1.421,1.414,4.581,4.581,0,0,0-1.118.955,4.257,4.257,0,0,0-.516,1.3,2.818,2.818,0,0,1-2.856,2.59,4.249,4.249,0,0,0-1.343.387,4.577,4.577,0,0,0-1.06,1.02,3.659,3.659,0,0,1-1.546,1.276,3.712,3.712,0,0,1-2.088-.169,4.389,4.389,0,0,0-1.362-.232,4.722,4.722,0,0,0-1.368.41A4.526,4.526,0,0,1,1333.382,1085.474Zm2.418-24.972a1.573,1.573,0,0,0-.476.068,3.232,3.232,0,0,0-1.286,1.1,4.966,4.966,0,0,1-1.206,1.143,4.707,4.707,0,0,1-1.526.454,2.3,2.3,0,0,0-2.415,2.19,4.706,4.706,0,0,1-.6,1.475,4.973,4.973,0,0,1-1.254,1.089,3.234,3.234,0,0,0-1.223,1.172,3.279,3.279,0,0,0,0,1.779,4.845,4.845,0,0,1,.1,1.565,5.126,5.126,0,0,1-.6,1.492,2.136,2.136,0,0,0,.375,3.194,3.741,3.741,0,0,1,1.186,2.706,2.137,2.137,0,0,0,2.219,2.447,3.742,3.742,0,0,1,2.578,1.444,2.135,2.135,0,0,0,3.142.684,5.124,5.124,0,0,1,1.543-.451,4.864,4.864,0,0,1,1.548.251,3.276,3.276,0,0,0,1.77.175,3.233,3.233,0,0,0,1.286-1.1,4.96,4.96,0,0,1,1.206-1.142,4.7,4.7,0,0,1,1.527-.455,2.3,2.3,0,0,0,2.415-2.19,4.714,4.714,0,0,1,.6-1.475,4.961,4.961,0,0,1,1.255-1.089,3.238,3.238,0,0,0,1.223-1.172,3.276,3.276,0,0,0,0-1.779,4.851,4.851,0,0,1-.1-1.565,5.119,5.119,0,0,1,.6-1.492,2.135,2.135,0,0,0-.375-3.194,3.742,3.742,0,0,1-1.186-2.706,2.137,2.137,0,0,0-2.219-2.447,3.74,3.74,0,0,1-2.578-1.444,2.135,2.135,0,0,0-3.142-.684,5.12,5.12,0,0,1-1.543.451,4.832,4.832,0,0,1-1.548-.251A5.165,5.165,0,0,0,1335.8,1060.5Z" transform="translate(-1324.203 -1059.578)" fill="#232323"/>
        </g>
        <g id="Group_63" data-name="Group 63" transform="translate(1.75 2.552)">
          <path id="Path_74" data-name="Path 74" d="M999.089,1203.545l-22.957,13.311a9.752,9.752,0,0,1-3.172,1.183c-3.974.711-7.917-1.142-8.718-6.524,2.452,5.614,8.775,6.192,9.881,1.5a5.02,5.02,0,0,0-.058-2.432c-2.76-10.45.766-18.836,6.306-23.515a18.515,18.515,0,0,1,2.757-1.932c7.754-4.428,17.693-2.377,20.9,9.58C1004.906,1198.628,1003.743,1200.927,999.089,1203.545Z" transform="translate(-964.242 -1182.987)" fill="#fc9500"/>
        </g>
        <g id="Group_64" data-name="Group 64" transform="translate(8.446 9.381)" opacity="0.3">
          <path id="Path_75" data-name="Path 75" d="M1365.712,1577.91l-22.957,13.311a9.758,9.758,0,0,1-3.172,1.183,9.167,9.167,0,0,1-1.2.136,4.83,4.83,0,0,0,4.5-4.839c0-.08.007-.161.008-.244a7.126,7.126,0,0,0-.1-1.264.473.473,0,0,1,.563-.541,5.931,5.931,0,0,0,3.479-.481l.006,0,17.6-10.207c4.654-2.618,5.818-4.916,4.945-8.829q-.216-.809-.475-1.557a21.052,21.052,0,0,1,1.751,4.507C1371.529,1572.994,1370.366,1575.292,1365.712,1577.91Z" transform="translate(-1338.378 -1564.575)" fill="#232323"/>
        </g>
        <g id="Group_65" data-name="Group 65" transform="translate(4.204 2.553)" opacity="0.55">
          <path id="Path_76" data-name="Path 76" d="M1134.217,1186.537c-10.564-8.919-30.319,3.737-24.782,24.7a5.034,5.034,0,0,1,.058,2.432c-.9,3.8-5.215,4.144-8.126,1.154,2.86,2.282,6.6,1.718,7.428-1.788a5.033,5.033,0,0,0-.058-2.432C1103.076,1189.169,1123.856,1176.419,1134.217,1186.537Z" transform="translate(-1101.367 -1183.008)" fill="#fff"/>
        </g>
        <g id="Group_66" data-name="Group 66" transform="translate(1.469 2.274)">
          <path id="Path_77" data-name="Path 77" d="M955.935,1203.217a7.327,7.327,0,0,1-4.315-1.313,8.1,8.1,0,0,1-3.084-5.6.281.281,0,0,1,.536-.154,8.052,8.052,0,0,0,2.812,3.5,5.253,5.253,0,0,0,3.353.965,3.52,3.52,0,0,0,3.185-2.921,4.758,4.758,0,0,0-.057-2.3c-2.224-8.422-.235-14.568,1.825-18.241a18.975,18.975,0,0,1,11.422-9.2,13.289,13.289,0,0,1,10.248,1.214c3.322,1.957,5.749,5.489,7.018,10.214l0,.012c.918,4.117-.411,6.508-5.081,9.135l-22.953,13.309a10.023,10.023,0,0,1-3.263,1.217A9.386,9.386,0,0,1,955.935,1203.217Zm-6.354-5.027a6.759,6.759,0,0,0,2.367,3.257,7.213,7.213,0,0,0,5.534,1.066,9.455,9.455,0,0,0,3.08-1.15l22.957-13.311c4.458-2.508,5.672-4.657,4.812-8.518-2.859-10.634-10.716-12.585-16.576-11.024-9.144,2.436-16.45,13.108-12.847,26.751a5.323,5.323,0,0,1,.06,2.568,4.1,4.1,0,0,1-3.682,3.352A6.573,6.573,0,0,1,949.581,1198.189Z" transform="translate(-948.532 -1167.461)" fill="#232323"/>
        </g>
        <g id="Group_68" data-name="Group 68" transform="translate(6.196 30.899)" opacity="0.5">
          <g id="Group_67" data-name="Group 67">
            <path id="Path_78" data-name="Path 78" d="M1212.925,2768.976a.579.579,0,0,1-.214-.3.847.847,0,0,1-.025-.384,1.064,1.064,0,0,1,.388-.657,1.186,1.186,0,0,1,.746-.25,1.511,1.511,0,0,1,.726.2l-.4.13a2.179,2.179,0,0,1,.215-.435.985.985,0,0,1,.431-.37l.076-.028a.734.734,0,0,1,.08-.017.628.628,0,0,1,.161-.01.774.774,0,0,1,.152.026.805.805,0,0,1,.132.058.7.7,0,0,1,.322.389.052.052,0,0,1-.032.065.056.056,0,0,1-.021,0h0c-.166-.015-.3-.04-.408-.039a.383.383,0,0,0-.227.055.687.687,0,0,0-.19.2,2.28,2.28,0,0,0-.181.316l-.011.024a.266.266,0,0,1-.355.124.218.218,0,0,1-.031-.018,1.155,1.155,0,0,0-.216-.112.644.644,0,0,0-.222-.036.611.611,0,0,0-.388.165,1.3,1.3,0,0,0-.285.354,1.107,1.107,0,0,0-.148.508v0a.049.049,0,0,1-.051.046A.048.048,0,0,1,1212.925,2768.976Z" transform="translate(-1212.675 -2766.855)" fill="#232323"/>
          </g>
        </g>
        <g id="Group_70" data-name="Group 70" transform="translate(7.245 27.383)" opacity="0.5">
          <g id="Group_69" data-name="Group 69">
            <path id="Path_79" data-name="Path 79" d="M1271.317,2571.328a.6.6,0,0,1,.131-.664.92.92,0,0,1,.73-.244.9.9,0,0,1,.662.367.691.691,0,0,1,.087.159.54.54,0,0,1,.046.17.466.466,0,0,1-.015.178.5.5,0,0,1-.094.173.065.065,0,0,1-.081.015l-.005,0a.953.953,0,0,1-.151-.1,1,1,0,0,1-.1-.087c-.053-.056-.093-.111-.137-.155a1.329,1.329,0,0,0-.125-.124c-.021-.02-.046-.028-.068-.046a.462.462,0,0,0-.074-.023.188.188,0,0,0-.076,0l-.037.008-.035.019c-.011.008-.023.009-.034.02a.276.276,0,0,1-.032.026c-.023.012-.042.039-.068.055a2.133,2.133,0,0,1-.439.282l0,0a.059.059,0,0,1-.078-.028Z" transform="translate(-1271.268 -2570.417)" fill="#232323"/>
          </g>
        </g>
        <g id="Group_71" data-name="Group 71" transform="translate(7.498 27.583)" opacity="0.3">
          <path id="Path_80" data-name="Path 80" d="M1286.5,2583.82l.032-.015A.239.239,0,0,1,1286.5,2583.82Z" transform="translate(-1286.48 -2583.765)" fill="#822c43"/>
          <path id="Path_81" data-name="Path 81" d="M1285.439,2581.689l-.035-.079.034-.016.04.077A.249.249,0,0,1,1285.439,2581.689Z" transform="translate(-1285.404 -2581.594)" fill="#232323"/>
        </g>
        <g id="Group_72" data-name="Group 72" transform="translate(34.396 2.395)">
          <path id="Path_82" data-name="Path 82" d="M2795.562,1186.287l-.3-.478a2.166,2.166,0,0,0,1.074-1.991,1.932,1.932,0,0,0-1.154-1.658.281.281,0,0,1-.154-.338c.242-.8.06-1.235-.607-1.463a.282.282,0,0,1-.19-.289,2.429,2.429,0,0,0-.433-1.848,2.184,2.184,0,0,0-1.534-.62.282.282,0,0,1-.259-.3c.04-.472-.02-.8-.17-.925a.707.707,0,0,0-.587-.023.282.282,0,0,1-.329-.149c-.8-1.662-1.716-1.514-2.335-1.258l-.215-.521c.851-.352,2.041-.392,2.957,1.335a1.045,1.045,0,0,1,.869.184,1.363,1.363,0,0,1,.385,1.13,2.549,2.549,0,0,1,1.638.777,2.82,2.82,0,0,1,.586,2.058,1.455,1.455,0,0,1,.822,1.849,2.481,2.481,0,0,1,1.271,2.025A2.72,2.72,0,0,1,2795.562,1186.287Z" transform="translate(-2788.373 -1174.227)" fill="#232323"/>
        </g>
        <g id="Group_73" data-name="Group 73" transform="translate(14.404 15.589)" opacity="0.2">
          <path id="Path_83" data-name="Path 83" d="M1671.6,1918.928c.169.67.565,1.443,1.256,1.456.64.012,1.085-.68,1.139-1.318s-.143-1.273-.132-1.912a6.567,6.567,0,0,1,.575-2.164c.358-.946.811-2.4-.069-3.218a1.33,1.33,0,0,0-2.028.393C1671.117,1913.976,1671.088,1916.9,1671.6,1918.928Z" transform="translate(-1671.286 -1911.446)" fill="#fff"/>
        </g>
        <g id="Group_74" data-name="Group 74" transform="translate(17.185 11.782)" opacity="0.2">
          <path id="Path_84" data-name="Path 84" d="M1828.1,1700.787a1.247,1.247,0,0,0,.993-.99c.155-.9-1.56-1.4-2.112-.862C1826.19,1699.713,1827.128,1700.953,1828.1,1700.787Z" transform="translate(-1826.687 -1698.713)" fill="#fff"/>
        </g>
      </g>
      <g id="Group_538" data-name="Group 538">
        <text id="_" data-name="$" transform="matrix(0.985, 0.174, -0.174, 0.985, 91.861, 36.331)" fill="#f71d00" font-size="13" font-family="SegoeUI, Segoe UI"><tspan x="0" y="0">$</tspan></text>
        <path id="Path_85" data-name="Path 85" d="M99.393,29.438l-.844,1.7L95.94,30.078a3.778,3.778,0,0,1,1.031-.156,5.462,5.462,0,0,1,1.156.156Z" fill="#b61e0a"/>
        <path id="Path_87" data-name="Path 87" d="M97.549,28.391s-5.172-.25-2.937,4.359l-1.484-1.156.355-2.375.766-.924,1.109-.343.845-.185.264-.555.977.264Z" fill="#fb998c"/>
        <path id="Path_88" data-name="Path 88" d="M96,34.969a3.285,3.285,0,0,1-2.812-.234l.531-.859Z" transform="matrix(0.999, -0.035, 0.035, 0.999, -1.143, 3.296)" fill="#fb998c"/>
        <path id="Path_86" data-name="Path 86" d="M95.783,31.25l2.673,1.6.3,1.372v1.289l-1.909,1.5-1.239.548h-.752l-.345-.752-1.958-1.066.163-.234s2.735,1.015,4.009.471.756-2.854.756-2.854a2.465,2.465,0,0,0-.547-.922A6.375,6.375,0,0,0,95.783,31.25Z" fill="#b61e0a"/>
        <text id="_2" data-name="$" transform="matrix(0.985, 0.174, -0.174, 0.985, 91.861, 36.331)" fill="none" stroke="#232323" stroke-width="0.6" font-size="13" font-family="SegoeUI, Segoe UI"><tspan x="0" y="0">$</tspan></text>
      </g>
    </g>
  </g>
</svg>
